<svg width="17" height="17" viewBox="0 0 17 17" fill="none" xmlns="http://www.w3.org/2000/svg">
<g clip-path="url(#clip0_1_620)">
<path fill-rule="evenodd" clip-rule="evenodd" d="M8.76048 12.476C5.07948 12.476 2.09448 8.51398 2.09448 8.51398C2.09448 8.51398 5.07948 4.55298 8.76148 4.55298C12.4425 4.55298 15.4275 8.51498 15.4275 8.51498C15.4275 8.51498 12.4425 12.477 8.76148 12.477L8.76048 12.476ZM4.68248 9.72298C4.23044 9.35021 3.80475 8.94657 3.40848 8.51498C3.71848 8.17698 4.15448 7.74098 4.68248 7.30698C5.82348 6.36998 7.26648 5.55298 8.76248 5.55298C10.2585 5.55298 11.7005 6.36998 12.8425 7.30698C13.3705 7.74098 13.8055 8.17698 14.1165 8.51498C13.8055 8.85298 13.3705 9.28898 12.8415 9.72298C11.7005 10.66 10.2585 11.477 8.76148 11.477C7.26648 11.477 5.82348 10.66 4.68248 9.72298ZM10.0255 8.10098C10.2565 8.10098 10.4655 8.00798 10.6185 7.85798C10.7674 8.27681 10.7695 8.7338 10.6244 9.15398C10.4794 9.57416 10.1959 9.93257 9.82033 10.1704C9.44479 10.4082 8.99957 10.5113 8.55772 10.4628C8.11587 10.4142 7.70364 10.217 7.38867 9.90331C7.07371 9.58966 6.87471 9.17826 6.82433 8.73662C6.77395 8.29497 6.87519 7.84933 7.11144 7.4728C7.34768 7.09627 7.70489 6.81122 8.12446 6.66444C8.54403 6.51765 9.00104 6.51784 9.42048 6.66498C9.30439 6.78373 9.22591 6.93409 9.19487 7.09723C9.16384 7.26038 9.18162 7.42905 9.24599 7.58213C9.31036 7.73522 9.41847 7.86591 9.55677 7.95785C9.69506 8.04978 9.85741 8.09888 10.0235 8.09898L10.0255 8.10098Z" fill="#111111"/>
</g>
<defs>
<clipPath id="clip0_1_620">
<rect width="16" height="16" fill="white" transform="translate(0.760498 0.512939)"/>
</clipPath>
</defs>
</svg>
